{"title":"The Realm (2011) DVDRip XviD AC3 peaSoup","uid":10980547,"size":1247487706,"categoryP":"video","categoryS":"movies","magnet":"?xt=urn:btih:ec669180e7d12b77d6f9dd07a79713ee918f9eb2&amp;dn=The+Realm+%282011%29+DVDRip+XviD+AC3+peaSoup&amp;tr=udp%3A%2F%2Ftracker.openbittorrent.com%3A80&amp;tr=udp%3A%2F%2Fopen.demonii.com%3A1337&amp;tr=udp%3A%2F%2Ftracker.coppersurfer.tk%3A6969&amp;tr=udp%3A%2F%2Fexodus.desync.com%3A6969","seeders":1,"leechers":0,"uploader":"peaSoup","files":-1,"time":1409864442,"description":"Storyline\n\nFive friends decide to videotape their experimental sessions with an Ouija board in an attempt to create a viral video that is sure to make them famous. Personal drama causes members of the group to forget to maintain focus on the game's important rules and soon fall prey to the evil entities that occupy the board.                &lt;a href=&quot; http://i.imgur.com/zYZuu7r.jpg&quot; rel=&quot;nofollow&quot; target=&quot;_NEW&quot;&gt; http://i.imgur.com/zYZuu7r.jpg&lt;/a&gt;                                                      &lt;a href=&quot; http://i.imgur.com/UxWI7Ie.jpg&quot; rel=&quot;nofollow&quot; target=&quot;_NEW&quot;&gt; http://i.imgur.com/UxWI7Ie.jpg&lt;/a&gt;                                                      &lt;a href=&quot; http://i.imgur.com/1aOn8Lm.jpg&quot; rel=&quot;nofollow&quot; target=&quot;_NEW&quot;&gt; http://i.imgur.com/1aOn8Lm.jpg&lt;/a&gt;                                                      &lt;a href=&quot; http://i.imgur.com/k0jYkBl.jpg&quot; rel=&quot;nofollow&quot; target=&quot;_NEW&quot;&gt; http://i.imgur.com/k0jYkBl.jpg&lt;/a&gt;                                                      &lt;a href=&quot; http://i.imgur.com/2R6l6z7.jpg&quot; rel=&quot;nofollow&quot; target=&quot;_NEW&quot;&gt; http://i.imgur.com/2R6l6z7.jpg&lt;/a&gt;                                                       Format                                   : AVI\nFormat/Info                              : Audio Video Interleave\nFormat profile                           : OpenDML\nFile size                                : 1.16 GiB\nDuration                                 : 1h 28mn\nOverall bit rate                         : 1 888 Kbps\nMovie name                               : The Realm (2011) DVDRip XviD AC3 peaSoup\nWriting application                      : Lavf54.63.104\nOriginal source form/Name                : THE_REALM\n\nVideo\nID                                       : 0\nFormat                                   : MPEG-4 Visual\nFormat profile                           : Advanced Simple@L5\nFormat settings, BVOP                    : 2\nFormat settings, QPel                    : No\nFormat settings, GMC                     : No warppoints\nFormat settings, Matrix                  : Default (MPEG)\nMuxing mode                              : Packed bitstream\nCodec ID                                 : XVID\nCodec ID/Hint                            : XviD\nDuration                                 : 1h 28mn\nBit rate                                 : 1 683 Kbps\nWidth                                    : 720 pixels\nHeight                                   : 404 pixels\nDisplay aspect ratio                     : 16:9\nFrame rate                               : 25.000 fps\nColor space                              : YUV\nChroma subsampling                       : 4:2:0\nBit depth                                : 8 bits\nScan type                                : Progressive\nCompression mode                         : Lossy\nBits/(Pixel*Frame)                       : 0.231\nStream size                              : 1.04 GiB (89%)\nWriting library                          : XviD 64\n\nAudio\nID                                       : 1\nFormat                                   : AC-3\nFormat/Info                              : Audio Coding 3\nMode extension                           : CM (complete main)\nFormat settings, Endianness              : Big\nCodec ID                                 : 2000\nDuration                                 : 1h 28mn\nBit rate mode                            : Constant\nBit rate                                 : 192 Kbps\nChannel(s)                               : 2 channels\nChannel positions                        : Front: L R\nSampling rate                            : 48.0 KHz\nBit depth                                : 16 bits\nCompression mode                         : Lossy\nStream size                              : 121 MiB (10%)\nAlignment                                : Aligned on interleaves\nInterleave, duration                     : 32 ms (0.80 video frame)\n\n","torrent":{"xt":"urn:btih:ec669180e7d12b77d6f9dd07a79713ee918f9eb2","amp;dn":"The+Realm+%282011%29+DVDRip+XviD+AC3+peaSoup","amp;tr":["udp%3A%2F%2Ftracker.openbittorrent.com%3A80","udp%3A%2F%2Fopen.demonii.com%3A1337","udp%3A%2F%2Ftracker.coppersurfer.tk%3A6969","udp%3A%2F%2Fexodus.desync.com%3A6969"],"infoHash":"ec669180e7d12b77d6f9dd07a79713ee918f9eb2","infoHashBuffer":{"type":"Buffer","data":[236,102,145,128,231,209,43,119,214,249,221,7,167,151,19,238,145,143,158,178]},"announce":[],"urlList":[]}}